<svg xmlns="http://www.w3.org/2000/svg" width="298" height="87" fill="none"><g fill="#fff" clip-path="url(#a)"><path d="M111.76 34.32c-.2-.44-.65-.73-1.14-.73h-1.56c-.49 0-.94.29-1.14.73L96.91 58.59c-.17.39-.14.84.09 1.19s.63.57 1.05.57h1.6c.49 0 .94-.29 1.14-.73l2.79-6.17h12.59l2.83 6.18c.2.45.65.73 1.14.73h1.6c.43 0 .82-.22 1.05-.57.23-.36.26-.81.08-1.2l-11.11-24.27Zm-6.42 15.17 4.49-9.96 4.54 9.96h-9.04.01ZM146.25 33.59h-1.46c-.69 0-1.25.56-1.25 1.25v14.44c0 2.39-.6 4.16-1.85 5.42-1.24 1.26-2.95 1.87-5.24 1.87s-4.04-.61-5.27-1.87c-1.24-1.26-1.84-3.04-1.84-5.42V34.84c0-.69-.56-1.25-1.25-1.25h-1.46c-.69 0-1.25.56-1.25 1.25v14.44c0 3.47.99 6.24 2.95 8.22 1.96 1.99 4.69 2.99 8.13 2.99 3.44 0 6.17-1.01 8.11-3 1.94-1.98 2.93-4.75 2.93-8.22V34.83c0-.69-.56-1.25-1.25-1.25v.01ZM166.871 46.24c-1.07-.48-2.47-.98-4.14-1.48-1.43-.45-2.57-.86-3.39-1.22a4.78 4.78 0 0 1-1.74-1.28c-.4-.46-.59-1.09-.59-1.9 0-.86.36-1.48 1.17-2.01.94-.62 2.27-.94 3.93-.94.97 0 1.99.14 3.01.41 1 .27 1.89.65 2.66 1.16.3.2.67.26 1.01.16.35-.09.63-.33.79-.65l.66-1.32c.28-.57.1-1.26-.44-1.61-1.02-.67-2.23-1.2-3.58-1.59-3.08-.89-6.27-.73-8.68.21-1.43.56-2.56 1.38-3.36 2.45-.82 1.1-1.24 2.38-1.24 3.8 0 1.69.43 3.1 1.29 4.2.8 1.04 1.8 1.83 2.97 2.37 1.03.47 2.42.98 4.14 1.5 1.42.42 2.57.82 3.41 1.19.73.32 1.31.75 1.79 1.32.41.48.6 1.11.6 1.95 0 1.05-.42 1.84-1.31 2.47-1.01.71-2.45 1.07-4.28 1.07-1.26 0-2.55-.27-3.83-.79-1.26-.52-2.33-1.24-3.17-2.14-.27-.29-.65-.44-1.05-.39-.39.04-.74.27-.94.6l-.76 1.28c-.29.49-.21 1.12.19 1.52 1.18 1.18 2.63 2.13 4.33 2.84 1.7.71 3.45 1.07 5.2 1.07 1.84 0 3.5-.29 4.92-.87 1.49-.61 2.66-1.5 3.49-2.65.85-1.17 1.28-2.54 1.28-4.05 0-1.71-.44-3.15-1.3-4.27a7.941 7.941 0 0 0-3.04-2.42v.01ZM192.36 33.59h-17.85c-.69 0-1.25.56-1.25 1.25v1.42c0 .69.56 1.25 1.25 1.25h6.94v21.6c0 .69.56 1.25 1.25 1.25h1.46c.69 0 1.25-.56 1.25-1.25v-21.6h6.94c.69 0 1.25-.56 1.25-1.25v-1.42c0-.69-.56-1.25-1.25-1.25h.01ZM200.13 33.59h-1.46c-.69 0-1.25.56-1.25 1.25v24.27c0 .69.56 1.25 1.25 1.25h1.46c.69 0 1.25-.56 1.25-1.25V34.84c0-.69-.56-1.25-1.25-1.25ZM229.54 33.59h-1.42c-.69 0-1.25.56-1.25 1.25v18.3L212.91 34.1a1.26 1.26 0 0 0-1.01-.51h-1.7c-.69 0-1.25.56-1.25 1.25v24.27c0 .69.56 1.25 1.25 1.25h1.46c.69 0 1.25-.56 1.25-1.25V40.85l13.92 19c.24.32.61.51 1.01.51h1.7c.69 0 1.25-.56 1.25-1.25V34.84c0-.69-.56-1.25-1.25-1.25ZM236.9 56.39c-.46.47-.7 1.08-.7 1.75 0 .5.14.97.42 1.39.04.06.08.12.13.18l-1.04 3.06c-.13.38-.07.8.17 1.13.23.33.61.52 1.02.52h.97c.51 0 .97-.31 1.16-.78l1.62-3.99c.02-.06.07-.18.15-.34.18-.39.27-.79.27-1.17 0-.67-.24-1.27-.69-1.75-.94-.99-2.55-.98-3.47 0h-.01ZM273.39 33.59h-17.85c-.69 0-1.25.56-1.25 1.25v1.42c0 .69.56 1.25 1.25 1.25h6.94v21.6c0 .69.56 1.25 1.25 1.25h1.46c.69 0 1.25-.56 1.25-1.25v-21.6h6.94c.69 0 1.25-.56 1.25-1.25v-1.42c0-.69-.56-1.25-1.25-1.25h.01ZM297.39 58.38l-8.51-11.88 7.84-10.94c.27-.38.31-.88.1-1.3-.21-.42-.64-.68-1.11-.68h-1.7c-.4 0-.78.19-1.01.52l-6.55 9.05-6.52-9.05c-.23-.33-.61-.52-1.01-.52h-1.7c-.47 0-.9.26-1.11.68-.21.42-.18.92.09 1.3l7.85 11.01-8.5 11.81c-.27.38-.31.88-.1 1.3.21.42.64.68 1.11.68h1.7c.4 0 .78-.19 1.01-.52l7.18-9.92 7.18 9.92c.24.32.61.52 1.01.52h1.74c.47 0 .9-.26 1.11-.68.21-.42.18-.92-.1-1.3ZM72.56 47.61c-1.1 0-2 .9-2 2 0 18.35-14.93 33.28-33.28 33.28-10.27 0-19.47-4.68-25.58-12.02h30.74c1.1 0 2-.9 2-2s-.9-2-2-2H8.84a33.763 33.763 0 0 1-2.67-5.47h24.08c1.1 0 2-.9 2-2s-.9-2-2-2H4.93c-.6-2.5-.93-5.11-.93-7.79 0-4.57.91-9.01 2.71-13.17.44-1.01-.03-2.19-1.04-2.63-1.01-.44-2.19.03-2.63 1.04A37.086 37.086 0 0 0 .01 49.6c0 7.24 2.08 14 5.67 19.73.11.44.36.81.7 1.09 6.71 9.92 18.06 16.46 30.91 16.46 20.56 0 37.28-16.72 37.28-37.28 0-1.1-.9-2-2-2l-.01.01Z"/><path d="M72.04 23.85c-.05-.65 0-1.26.05-1.96.06-.74.12-1.57.07-2.51-.12-2.03-1.39-3.46-3.22-3.66-.51-.05-1.49-.01-4.14.12-2.61.13-8.22.4-10.59.2 0-.47.02-1.06.05-1.83.03-.68-.22-1.32-.7-1.81-1.12-1.14-3.15-1.14-6.62-1.03-.47.01-.99.03-1.47.04-.09-2.18-.19-4.36-.27-6.54-.12-3.08-1.46-4.4-4.5-4.41H29.82c-4.02 0-5.25 1.21-5.25 5.2v18.29h-2.49c-2.72 0-5.44 0-8.16-.01h-.05c-1.98 0-3.35.77-4.07 2.29-.78 1.64-.39 3.26 1.15 4.82l.34.35c1.75 1.76 3.55 3.58 5.38 5.33 1.27 1.21 1.24 2.08 1.23 2.37-.07 2.34.97 4.15 3.2 5.53 1.08.68 2.07 1.2 3.02 1.6 1.96.82 4.22 1.63 6.26.71 1.68-.75 2.59-2.38 3.17-3.89 1.55.35 2.59 1.13 3.25 2.43.3.6.55 1.26.8 1.96l.1.26c.91 2.46 2.15 4.23 3.9 5.55.02.07.05.18.08.33.42 2.05 1.3 6.31 5.49 7.82 2.78 1.01 5.67 1.62 8.38 2.14.28.05.56.08.83.08 1.22 0 2.36-.52 3.14-1.47 1.04-1.26 1.29-3.06.64-4.7-.54-1.35-.9-2.46-1.14-3.46-.48-1.99.21-3.61 2.05-4.81.39-.25.79-.5 1.18-.75 1.41-.89 2.87-1.8 4.17-2.98l.19-.17c1.64-1.49 2.93-2.66 4.82-2.8 1.13-.08 2.17-.63 2.86-1.5.65-.83.92-1.85.74-2.89-.29-1.72-.17-3.39.35-5.13.31-1.03.02-1.88-2.36-6.96-.37-.79-.82-1.76-.98-2.15Zm-.99 14.65c-3.21.26-5.29 2.15-7.13 3.82l-.18.17c-1.04.94-2.29 1.73-3.61 2.56-.41.26-.83.52-1.24.79-3.27 2.13-4.64 5.44-3.76 9.09.29 1.2.71 2.47 1.32 4.01.16.4.03.66-.02.69h-.13c-2.55-.49-5.25-1.06-7.77-1.97-1.75-.63-2.4-2.26-2.94-4.87-.16-.79-.49-1.92-1.44-2.61-1.2-.86-2.03-2.05-2.7-3.86l-.09-.25c-.29-.78-.58-1.58-.99-2.38-1.35-2.68-3.68-4.26-6.93-4.71-.18-.02-.36-.04-.53-.04-1.37 0-2.43.77-2.9 2.14-.6 1.75-1.09 2.13-1.27 2.21-.42.19-1.45-.06-3.07-.75-.75-.32-1.55-.74-2.46-1.3-1.13-.71-1.34-1.25-1.31-2.02.06-1.95-.77-3.76-2.47-5.38-1.79-1.71-3.58-3.51-5.31-5.25l-.34-.35c-.11-.11-.19-.2-.25-.27.08 0 .2-.02.36-.01 2.73.02 5.46.01 8.19.01h6.49V5.68c0-.58.02-.93.04-1.15.23-.02.6-.04 1.21-.04H40.7c.21 0 .36 0 .48.02.01.12.03.3.04.54.1 2.59.21 5.18.32 7.77 0 .21.04.41.11.69l.32 1.57 1.35.24c.91.16 2.23.12 3.76.07.85-.03 2.22-.07 3.15-.02-.02.98 0 1.74.06 2.32.27 2.63 2.84 2.75 14.72 2.17 1.2-.06 2.53-.12 3.18-.14.03.63-.01 1.24-.07 1.88-.07.84-.14 1.8-.03 2.89.05.5.21.87 1.32 3.23.62 1.31 1.71 3.64 2.02 4.57-.57 2.09-.69 4.14-.38 6.23v-.02Z"/><path d="m58.54 31.9-3.62-.53-1.62-3.28c-.17-.34-.73-.34-.9 0l-1.62 3.28-3.62.53a.5.5 0 0 0-.4.34c-.06.18 0 .38.13.51l2.62 2.55-.62 3.61a.506.506 0 0 0 .73.53l3.24-1.7 3.24 1.7c.07.04.15.06.23.06.1 0 .21-.03.29-.1.15-.11.23-.3.2-.49l-.62-3.61 2.62-2.55c.14-.13.19-.33.13-.51a.514.514 0 0 0-.4-.34h-.01Z"/></g><defs><clipPath id="a"><path fill="#fff" d="M0 .46h297.63v86.43H0z"/></clipPath></defs></svg>