<?xml version="1.0" encoding="utf-8"?>
<!-- Generator: Adobe Illustrator 26.3.1, SVG Export Plug-In . SVG Version: 6.00 Build 0)  -->
<svg version="1.1" id="Layer_1" xmlns="http://www.w3.org/2000/svg" xmlns:xlink="http://www.w3.org/1999/xlink" x="0px" y="0px"
	 viewBox="0 0 495.5 65.4" style="enable-background:new 0 0 495.5 65.4;" xml:space="preserve">
<style type="text/css">
	.st0{fill:#F6F3E2;}
</style>
<path class="st0" d="M38.3,46.1c0.2,0.2,0.2,0.3,0.1,0.4c-0.2,0.2-0.3,0.4-0.4,0.1c0,0-0.2-0.4-0.1-0.5C37.9,46,38.1,45.9,38.3,46.1
	z M38.2,48.3c0.1,0.2,0.6,0.1,0.8,0.1c0.3,0,0.5,0,0.5-0.4c0-0.4-0.7-0.3-1.1-0.1C38.1,48,38.2,48.3,38.2,48.3z M32.4,50.2
	c-0.5-0.3-1.1,0-1.1,0c-0.1,0.1-0.1,0.2-0.2,0.7c0,0.5,0.5,1.2,0.9,1.6c0.3,0.4,0.6,0.6,1,0.4c0.4-0.2,0.2-0.7,0.3-1.2
	C33.4,51.2,32.9,50.5,32.4,50.2z M32.4,46.2c0,0,0-0.1,0.1-0.2c0-0.1,0-0.2-0.1-0.3c-0.1-0.1-0.1,0-0.1,0s-0.1,0.1-0.1,0.2
	c0,0.1,0,0.1,0,0.1s0,0.1,0.1,0.1C32.3,46.3,32.4,46.2,32.4,46.2z M36.8,49.8c-0.3,0-0.3,0.2-0.3,0.2s-0.1,0.7-0.1,1.1
	c0,0.4,0,1.4,0.3,1.4c0.3,0,0.4-0.1,0.5-0.5c0.1-0.3,0.2-0.4,0.4-0.6c0.2-0.1,0.4-0.4,0.1-0.9C37.3,50.1,37,49.8,36.8,49.8z
	 M33.2,45.8c-0.2-0.1-0.3,0-0.3,0.1c0,0.2,0.1,0.4,0.2,0.8c0.1,0.5-0.1,0.8-0.1,0.8c-0.2,0.2,0.2,0.4,0.4,0.4c0.3-0.1,0.2-1,0.1-1.5
	C33.5,46,33.3,45.9,33.2,45.8z M30.9,48.7c0.1-0.1,0.1-0.1,0-0.3c-0.1-0.2-0.1-0.4-0.3-0.5c-0.2-0.1-0.6,0-0.8,0
	c-0.1,0-0.1,0.1-0.1,0.1l0.1,0.3c0.1,0.4,0.5,0.5,0.7,0.5C30.8,48.8,30.9,48.8,30.9,48.7z M36.4,46.1c0,0-0.1,0.2-0.1,0.4
	c0.1,0.3,0.1,0.3,0.1,0.7c-0.1,0.4-0.1,0.8,0.1,0.7c0.2,0,0.2,0,0.2-0.4c0-0.4,0-0.9-0.1-1.4C36.6,46,36.4,46.1,36.4,46.1z
	 M29.8,50.5c-0.3-0.1-0.4,0.2-0.4,0.2c-0.4,0.7,0.1,1.1,0.3,1.2c0.2,0.1,0.8,0.2,1-0.2C30.8,51.4,30.1,50.6,29.8,50.5z M24.8,51.9
	c0.2,0,0.5-0.2,0.6-0.2c0.1-0.1,0.1-0.1,0.1-0.2c0-0.1-0.2-0.2-0.2-0.2s-0.2-0.1-0.5-0.1c-0.3,0-0.4,0.1-0.5,0.3
	c-0.1,0.1-0.1,0.3-0.1,0.3v0C24.3,52,24.6,51.9,24.8,51.9z M27.3,50c-0.2,0.2,0,0.7,0.2,0.9c0.2,0.2,0.5,0.5,0.5,0.5
	c0.2,0.2,0.4,0,0.5-0.2c0.1-0.2,0.1-0.3,0-0.4c-0.1-0.1-0.3-0.5-0.4-0.6C28,50.1,27.5,49.8,27.3,50z M41.6,49.8
	c0.1-0.1,0.1-0.1,0-0.2c-0.1,0-0.3-0.2-0.4-0.2c-0.1,0-0.5,0.5-0.5,0.5c-0.1,0.1,0,0.1,0.2,0.1C41.3,50.2,41.6,49.9,41.6,49.8z
	 M44.3,52.2c0.2,0,0.3,0.1,0.5,0.2c0.2,0.1,0.2,0,0.3-0.1c0-0.1-0.1-0.2-0.1-0.2s-0.6-0.4-0.7-0.4c-0.1,0-0.2,0.1-0.2,0.1
	C44,52.1,44.1,52.2,44.3,52.2z M42.7,49.7c0.2-0.2,0.8-0.7,0.8-0.7s0.1-0.1-0.1-0.2c-0.2-0.1-0.6-0.4-0.8-0.2
	c-0.3,0.2-0.4,0.9-0.2,1C42.4,49.7,42.5,49.8,42.7,49.7z M96.1,0v65.4c0,0,0-0.1,0-0.3c0,0.1,0,0.2,0,0.3c-1.9,0-12.3-0.2-25.9-4.6
	c-15.1-4.9-20.4,1.4-22.1,3c-1.2-1.1-3.9-4.2-10-4.8c-0.6,0-1.1-0.4-1.4-0.8c-0.4-0.6-0.6-1.2-0.6-1.9c0-2.3,3.2-3.5,5.3-3.8
	c0.7,0.2,1.4,0.3,2.2,0.2c0.3,0.2,0.4,0.4,0.5,0.6c0,0.2-0.1,0.5,0,0.7c0.2,0.4,0.5,0.8,0.8,1.1c0.1,0.1,0.5-0.1,0.7-0.2
	c0.6-0.3,1,0.3,1.5,0.4c0.3,0.1,0.6,0.3,0.8,0.2c0.8-0.2,1.7-0.7,2.5,0c0.1,0.1,0.6,0.1,0.6-0.3c-0.1-0.5,0.2-0.6,0.6-0.8
	c0.4-0.2,1.1-0.5,1.1-0.9c0.1-0.8,0.5-1.2,1.2-1.5c0.4-0.1,0.3-0.4,0.2-0.7c-0.1-0.2-0.2-0.5-0.2-0.6c0.6-0.4,0.2-0.8,0-1.1
	c-0.3-0.5-0.4-1.2-0.7-1.6c-0.4-0.5-0.4-0.7,0-1.1c0.6-0.6,0.5-1.2-0.1-1.8c-0.3-0.3-0.7-0.5-0.8-0.9c-0.2-0.5-0.4-0.8-1-0.6
	c-0.3,0.1-0.7,0-1,0c-0.2,0-0.3,0.2-0.5,0.2c0-0.3-0.1-0.6,0-0.8c0.2-0.3,0.5-0.5,0.7-0.8c0.5-0.7,0.9-1.4,0.3-2.2
	c-0.6-0.8-0.5-1.8-0.2-2.7c0.1-0.3,0.2-0.6-0.1-0.7c-0.5-0.3-0.4-1.3-1.3-1.1c-0.1,0-0.3-0.1-0.2-0.2c0.2-1-0.2-1.4-1.2-1.2
	c-0.1,0-0.3-0.2-0.4-0.3C47.2,32.9,46.6,33,46,33c-1.4,0-1.4,0-2.7,0.7c-0.1,0.1-0.2,0.1-0.3,0.2c-0.4,0.2-1,0-1-0.4
	c-0.1-0.5,0-0.9,0-1.4c0-0.2-0.1-0.4-0.2-0.4c-0.3-0.1-0.6,0-0.8-0.2c-0.2-0.1,0.7-0.5-0.1-0.6c-0.3,0-0.4-0.4-0.7-0.7
	C40.1,30.1,40,30,40,30c-1.7-0.1-1.7-0.1-2.9-0.9c-0.4-0.3-1-0.6-1.3-0.4c-0.6,0.4-1.2,0.2-1.8,0.2c-1.2,0.1-1.4,0.2-1.8,1.4
	c-0.2,0.6-0.4,0.8-1,0.4c-0.1,0-0.3,0-0.3,0.1c0,0.6-0.5,0.9-0.8,1.4c-0.2,0.4,0,1.1-0.2,1.3c-0.3,0.2-0.9,0-1.4,0.1
	c-0.7,0.1-1.3-0.3-1.8-0.7c-0.4-0.4-0.4-0.2-0.5,0.2c-0.2,0.7-1.1,0.4-1.6,0.8c-0.3,0.3-0.5-0.3-0.8-0.4c-0.4-0.1-0.9-0.2-1.3-0.1
	c-0.1,0-0.1,0.6-0.1,0.9c0,0.1,0,0.2,0,0.3c-0.1,0.6-0.3,0.1-0.5,0.1c-0.5-0.1-0.9,0.2-0.9,0.7c0,0.6,0,1.3,0,1.9
	c0,0.4-0.2,0.7-0.4,1c0,0-0.4-0.2-0.7-0.2c-0.6,0.1-1.2,0.2-1.8,0.3c-0.6,0.1,0,0.7-0.4,1c-0.2,0.2-0.2,0.5-0.4,0.7
	c-0.7,0.8-0.7,1-0.2,1.5c0.3,0.3,0.7,0.6,1,1c0.2,0.3,0.2,0.5-0.2,0.6c-0.9,0.4-2.3,0.6-1.8,2.2c0,0.1-0.1,0.2-0.2,0.2
	c-0.6-0.1-0.5,0.3-0.5,0.7c0,0.4-0.1,0.8-0.3,1.3c-0.2,0.5-0.3,1.4,0.4,1.9c0.3,0.2,0,0.3-0.1,0.5c-0.2,0.4-0.3,0.8-0.4,1.2
	c0,0.3-0.2,0.7,0.4,0.8c0.1,0,0.3,0.2,0.3,0.3c-0.1,0.7,0.2,0.7,0.8,0.8c0.5,0.1,0.8,0.7,0.6,1.2c-0.2,0.4-0.4,0.5,0.2,0.5
	c0.3,0,0.8-0.2,0.9,0.2c0.1,0.5,0.1,1,0.2,1.5c0.4-0.6,0.9-0.3,1.4-0.3c0.2,0,0.4,0.2,0.6,0.3c0.6,0.1,1.1,0.2,1.5-0.3
	c0.2-0.3,0.5-0.5,0.7-0.8c0.4-0.5,0.6,0.5,1,0.1c0.3-0.4,0.6-0.4,1,0c0.1,0.1,0.4,0.1,0.4,0c0.1-0.1,0.1-0.4,0.1-0.4
	c-0.5-0.4-0.3-1-0.3-1.4c0-0.3,0.3-0.7,0.5-0.8c0.3-0.1,0.7-0.2,1-0.3c1.9,0,6.1,1.3,6.1,3.9c0,1.3-0.6,2.4-1.9,3.2
	c-0.2,0.1-0.4,0.2-0.6,0.2c-1.3,0.3-2.6,0.6-4,1.1c-0.2,0.1-0.3,0.1-0.5,0.1L25.3,61c-13.4,4.2-23.5,4.4-25.2,4.4
	C0,64.6,0,63.9,0,63.2c0-0.7,0-1.4,0.1-2V0H96.1z M54.5,24.2l-1,0l-0.4-0.9l-0.4,0.9l-1,0l0.8,0.6l-0.3,1l0.8-0.5l0.8,0.5l-0.3-1
	L54.5,24.2z M69.1,45.6l1-0.8l-1.3-0.1l-0.5-1.2l-0.5,1.2l-1.3,0.1l1,0.8l-0.3,1.3l1.1-0.7l1.1,0.7L69.1,45.6z M115.4,43.3h4.6V29.8
	l10.2,13.4h4V22.1h-4.6v13l-9.9-13h-4.3V43.3z M145.5,43.3h4.7V22.1h-4.7V43.3z M171.4,43.6c4.1,0,6.5-1.5,8.7-3.8l-3-3
	c-1.7,1.5-3.1,2.5-5.6,2.5c-3.6,0-6.1-3-6.1-6.6v-0.1c0-3.6,2.6-6.6,6.1-6.6c2.1,0,3.8,0.9,5.4,2.4l3-3.4c-2-1.9-4.3-3.3-8.3-3.3
	c-6.5,0-11,4.9-11,10.9v0.1C160.5,38.8,165.1,43.6,171.4,43.6z M189.8,43.3h4.6v-8.5h8.6v8.5h4.6V22.1H203v8.4h-8.6v-8.4h-4.6V43.3z
	 M229,43.6c6.5,0,11.3-4.9,11.3-10.9v-0.1c0-6-4.7-10.9-11.2-10.9c-6.5,0-11.3,4.9-11.3,10.9v0.1C217.8,38.8,222.5,43.6,229,43.6z
	 M229.1,39.3c-3.7,0-6.4-3-6.4-6.6v-0.1c0-3.6,2.6-6.6,6.3-6.6s6.4,3,6.4,6.6v0.1C235.4,36.4,232.8,39.3,229.1,39.3z M250.5,43.3
	h15.2V39h-10.5V22.1h-4.6V43.3z M273.4,43.3h4.7l1.9-4.7h8.9l1.9,4.7h4.9L286.7,22h-4.3L273.4,43.3z M281.7,34.4l2.8-6.9l2.8,6.9
	H281.7z M312.3,43.6c4.6,0,7.8-2.4,7.8-6.6v-0.1c0-3.7-2.4-5.2-6.7-6.3c-3.7-0.9-4.6-1.4-4.6-2.8v-0.1c0-1,0.9-1.8,2.7-1.8
	c1.8,0,3.6,0.8,5.5,2.1l2.4-3.5c-2.1-1.7-4.8-2.7-7.9-2.7c-4.3,0-7.4,2.5-7.4,6.4v0.1c0,4.2,2.7,5.4,7,6.5c3.5,0.9,4.3,1.5,4.3,2.7
	v0.1c0,1.2-1.1,2-3.1,2c-2.4,0-4.4-1-6.3-2.6l-2.8,3.3C305.9,42.4,309.1,43.6,312.3,43.6z M352.7,43.6c4.6,0,7.8-2.4,7.8-6.6v-0.1
	c0-3.7-2.4-5.2-6.7-6.3c-3.7-0.9-4.6-1.4-4.6-2.8v-0.1c0-1,0.9-1.8,2.7-1.8c1.8,0,3.6,0.8,5.5,2.1l2.4-3.5c-2.1-1.7-4.8-2.7-7.9-2.7
	c-4.3,0-7.4,2.5-7.4,6.4v0.1c0,4.2,2.7,5.4,7,6.5c3.5,0.9,4.3,1.5,4.3,2.7v0.1c0,1.2-1.1,2-3.1,2c-2.4,0-4.4-1-6.3-2.6l-2.8,3.3
	C346.3,42.4,349.5,43.6,352.7,43.6z M370.6,43.3h4.6v-6.3h3.5c4.7,0,8.5-2.5,8.5-7.4v-0.1c0-4.3-3.1-7.3-8.1-7.3h-8.6V43.3z
	 M375.2,32.8v-6.5h3.6c2.3,0,3.8,1.1,3.8,3.2v0.1c0,1.8-1.4,3.2-3.7,3.2H375.2z M392.9,43.3h4.7l1.9-4.7h8.9l1.9,4.7h4.9L406.2,22
	h-4.3L392.9,43.3z M401.2,34.4l2.8-6.9l2.8,6.9H401.2z M424.6,43.3h4.6v-6.8h3.6h0.1l4.5,6.8h5.4l-5.2-7.5c2.7-1,4.5-3.1,4.5-6.6
	v-0.1c0-2-0.6-3.7-1.8-4.8c-1.4-1.4-3.5-2.1-6.2-2.1h-9.7V43.3z M429.2,32.4v-6.1h4.6c2.3,0,3.7,1,3.7,3v0.1c0,1.8-1.3,3-3.6,3
	H429.2z M452.4,43.3h4.6v-6.5l2.4-2.5l6.6,9h5.6l-9-12.2l8.6-9h-5.6l-8.6,9.2v-9.2h-4.6V43.3z M487.7,43.6c4.6,0,7.8-2.4,7.8-6.6
	v-0.1c0-3.7-2.4-5.2-6.7-6.3c-3.7-0.9-4.6-1.4-4.6-2.8v-0.1c0-1,0.9-1.8,2.7-1.8c1.8,0,3.6,0.8,5.5,2.1l2.4-3.5
	c-2.1-1.7-4.8-2.7-7.9-2.7c-4.3,0-7.4,2.5-7.4,6.4v0.1c0,4.2,2.7,5.4,7,6.5c3.5,0.9,4.3,1.5,4.3,2.7v0.1c0,1.2-1.1,2-3.1,2
	c-2.4,0-4.4-1-6.3-2.6l-2.8,3.3C481.3,42.4,484.5,43.6,487.7,43.6z"/>
</svg>
